<svg width="290" height="48" viewBox="0 0 290 48" fill="none" xmlns="http://www.w3.org/2000/svg">
<path d="M0.75 24C0.75 11.16 11.1687 0.75 24.0222 0.75H265.278C278.132 0.75 288.551 11.16 288.551 24C288.551 36.84 278.132 47.25 265.278 47.25H24.0222C11.1687 47.25 0.75 36.84 0.75 24Z" fill="url(#paint0_linear_202_165)" stroke="#EFEFEF" stroke-width="1.5"/>
<path d="M59.7337 29.7555C58.8794 29.7555 58.051 29.5937 57.2485 29.2701C56.4589 28.9466 55.76 28.4871 55.1516 27.8916L56.4719 26.3578C56.9249 26.7849 57.4427 27.1344 58.0251 27.4062C58.6076 27.6651 59.1901 27.7946 59.7725 27.7946C60.4974 27.7946 61.0475 27.6457 61.4229 27.348C61.7982 27.0503 61.9859 26.6555 61.9859 26.1636C61.9859 25.633 61.7982 25.2511 61.4229 25.0181C61.0604 24.7851 60.5945 24.5457 60.0249 24.2997L58.2775 23.5425C57.8633 23.3613 57.4556 23.1283 57.0543 22.8436C56.666 22.5588 56.3424 22.1964 56.0836 21.7563C55.8376 21.3162 55.7147 20.7855 55.7147 20.1642C55.7147 19.4911 55.8959 18.8893 56.2583 18.3586C56.6337 17.8149 57.1385 17.3878 57.7727 17.0771C58.4199 16.7535 59.1577 16.5917 59.9861 16.5917C60.7239 16.5917 61.4358 16.7406 62.1218 17.0383C62.8078 17.3231 63.3968 17.7114 63.8886 18.2032L62.7431 19.64C62.3419 19.3035 61.9147 19.0381 61.4617 18.844C61.0216 18.6498 60.5297 18.5527 59.9861 18.5527C59.3907 18.5527 58.9053 18.6886 58.5299 18.9604C58.1675 19.2193 57.9863 19.5817 57.9863 20.0477C57.9863 20.3713 58.0769 20.6431 58.2581 20.8632C58.4523 21.0703 58.7047 21.2515 59.0153 21.4068C59.326 21.5492 59.656 21.6916 60.0055 21.834L61.7335 22.5523C62.4842 22.8759 63.0991 23.3031 63.578 23.8338C64.0569 24.3515 64.2964 25.0699 64.2964 25.9889C64.2964 26.6749 64.1152 27.3027 63.7527 27.8722C63.3903 28.4417 62.8661 28.9013 62.1801 29.2507C61.507 29.5873 60.6915 29.7555 59.7337 29.7555ZM66.4112 29.5226V19.9895H68.644V29.5226H66.4112ZM67.5373 18.3197C67.136 18.3197 66.8124 18.2032 66.5665 17.9703C66.3206 17.7373 66.1976 17.4266 66.1976 17.0383C66.1976 16.6629 66.3206 16.3588 66.5665 16.1258C66.8124 15.8928 67.136 15.7763 67.5373 15.7763C67.9385 15.7763 68.2621 15.8928 68.5081 16.1258C68.754 16.3588 68.8769 16.6629 68.8769 17.0383C68.8769 17.4266 68.754 17.7373 68.5081 17.9703C68.2621 18.2032 67.9385 18.3197 67.5373 18.3197ZM74.8127 33.7357C74.0619 33.7357 73.3824 33.6451 72.774 33.4639C72.1786 33.2827 71.7062 33.0044 71.3567 32.6291C71.0202 32.2666 70.8519 31.8071 70.8519 31.2505C70.8519 30.461 71.3049 29.7814 72.211 29.2119V29.1342C71.965 28.9789 71.7579 28.7718 71.5897 28.5129C71.4344 28.2541 71.3567 27.9305 71.3567 27.5422C71.3567 27.1668 71.4602 26.8303 71.6673 26.5325C71.8874 26.2219 72.1333 25.9695 72.4051 25.7753V25.6977C72.0815 25.4517 71.7903 25.1087 71.5314 24.6686C71.2855 24.2286 71.1625 23.7302 71.1625 23.1736C71.1625 22.4358 71.3373 21.8145 71.6868 21.3097C72.0362 20.8049 72.4957 20.4231 73.0653 20.1642C73.6477 19.8924 74.269 19.7565 74.9292 19.7565C75.188 19.7565 75.434 19.7824 75.667 19.8342C75.9129 19.873 76.1329 19.9248 76.3271 19.9895H79.7442V21.6398H77.9968C78.1522 21.821 78.2816 22.054 78.3851 22.3388C78.4887 22.6106 78.5405 22.9148 78.5405 23.2513C78.5405 23.9503 78.3787 24.5457 78.0551 25.0375C77.7315 25.5165 77.2979 25.8789 76.7542 26.1248C76.2106 26.3707 75.6022 26.4937 74.9292 26.4937C74.7221 26.4937 74.5085 26.4743 74.2884 26.4355C74.0684 26.3966 73.8484 26.3319 73.6283 26.2413C73.4859 26.3707 73.3694 26.5002 73.2788 26.6296C73.2012 26.7591 73.1623 26.9338 73.1623 27.1538C73.1623 27.4257 73.2724 27.6392 73.4924 27.7946C73.7254 27.9499 74.1331 28.0275 74.7156 28.0275H76.4048C77.5567 28.0275 78.424 28.2152 79.0064 28.5906C79.6019 28.953 79.8996 29.5484 79.8996 30.3768C79.8996 30.9981 79.6925 31.5612 79.2783 32.066C78.8641 32.5838 78.2751 32.9915 77.5114 33.2892C76.7478 33.5869 75.8482 33.7357 74.8127 33.7357ZM74.9292 25.0958C75.3822 25.0958 75.7705 24.9275 76.0941 24.591C76.4177 24.2544 76.5795 23.782 76.5795 23.1736C76.5795 22.5782 76.4177 22.1187 76.0941 21.7951C75.7835 21.4586 75.3951 21.2903 74.9292 21.2903C74.4632 21.2903 74.0684 21.4521 73.7448 21.7757C73.4212 22.0993 73.2594 22.5653 73.2594 23.1736C73.2594 23.782 73.4212 24.2544 73.7448 24.591C74.0684 24.9275 74.4632 25.0958 74.9292 25.0958ZM75.1622 32.2796C75.9258 32.2796 76.5471 32.1242 77.0261 31.8136C77.505 31.5029 77.7444 31.147 77.7444 30.7457C77.7444 30.3704 77.5956 30.118 77.2979 29.9885C77.0131 29.8591 76.5989 29.7944 76.0553 29.7944H74.7544C74.2367 29.7944 73.8031 29.7491 73.4536 29.6585C72.9617 30.0338 72.7158 30.4545 72.7158 30.9205C72.7158 31.3476 72.9358 31.6777 73.3759 31.9107C73.816 32.1566 74.4114 32.2796 75.1622 32.2796ZM81.5796 29.5226V19.9895H83.4241L83.5794 21.2709H83.6571C84.0842 20.8567 84.5502 20.5008 85.055 20.203C85.5598 19.9053 86.1358 19.7565 86.783 19.7565C87.8056 19.7565 88.5498 20.0866 89.0158 20.7467C89.4818 21.4068 89.7148 22.3388 89.7148 23.5425V29.5226H87.482V23.8338C87.482 23.0442 87.3655 22.4876 87.1325 22.164C86.8995 21.8404 86.5177 21.6786 85.987 21.6786C85.5728 21.6786 85.2039 21.7822 84.8803 21.9893C84.5696 22.1834 84.2137 22.4747 83.8124 22.863V29.5226H81.5796ZM96.331 29.5226V19.9895H98.5638V29.5226H96.331ZM97.4571 18.3197C97.0558 18.3197 96.7322 18.2032 96.4863 17.9703C96.2403 17.7373 96.1174 17.4266 96.1174 17.0383C96.1174 16.6629 96.2403 16.3588 96.4863 16.1258C96.7322 15.8928 97.0558 15.7763 97.4571 15.7763C97.8583 15.7763 98.1819 15.8928 98.4278 16.1258C98.6738 16.3588 98.7967 16.6629 98.7967 17.0383C98.7967 17.4266 98.6738 17.7373 98.4278 17.9703C98.1819 18.2032 97.8583 18.3197 97.4571 18.3197ZM101.412 29.5226V19.9895H103.257L103.412 21.2709H103.49C103.917 20.8567 104.383 20.5008 104.888 20.203C105.393 19.9053 105.969 19.7565 106.616 19.7565C107.638 19.7565 108.383 20.0866 108.849 20.7467C109.315 21.4068 109.548 22.3388 109.548 23.5425V29.5226H107.315V23.8338C107.315 23.0442 107.198 22.4876 106.965 22.164C106.732 21.8404 106.35 21.6786 105.82 21.6786C105.406 21.6786 105.037 21.7822 104.713 21.9893C104.402 22.1834 104.046 22.4747 103.645 22.863V29.5226H101.412ZM117.736 29.5226L115.212 19.9895H117.465L118.61 24.9405C118.714 25.3935 118.798 25.8465 118.862 26.2996C118.94 26.7526 119.024 27.2121 119.115 27.6781H119.193C119.283 27.2121 119.374 26.7526 119.464 26.2996C119.568 25.8336 119.678 25.3806 119.794 24.9405L121.037 19.9895H123.076L124.338 24.9405C124.454 25.3935 124.564 25.8465 124.668 26.2996C124.771 26.7526 124.875 27.2121 124.978 27.6781H125.056C125.147 27.2121 125.231 26.7526 125.308 26.2996C125.386 25.8465 125.47 25.3935 125.561 24.9405L126.706 19.9895H128.803L126.376 29.5226H123.716L122.61 25.0764C122.506 24.6233 122.409 24.1768 122.318 23.7367C122.228 23.2837 122.131 22.8047 122.027 22.2999H121.95C121.859 22.8047 121.768 23.2837 121.678 23.7367C121.587 24.1897 121.49 24.6428 121.387 25.0958L120.299 29.5226H117.736ZM130.688 29.5226V19.9895H132.92V29.5226H130.688ZM131.814 18.3197C131.412 18.3197 131.089 18.2032 130.843 17.9703C130.597 17.7373 130.474 17.4266 130.474 17.0383C130.474 16.6629 130.597 16.3588 130.843 16.1258C131.089 15.8928 131.412 15.7763 131.814 15.7763C132.215 15.7763 132.538 15.8928 132.784 16.1258C133.03 16.3588 133.153 16.6629 133.153 17.0383C133.153 17.4266 133.03 17.7373 132.784 17.9703C132.538 18.2032 132.215 18.3197 131.814 18.3197ZM139.128 29.7555C138.028 29.7555 137.245 29.4384 136.779 28.8042C136.326 28.157 136.099 27.3221 136.099 26.2996V21.7563H134.74V20.0866L136.216 19.9895L136.487 17.3878H138.351V19.9895H140.778V21.7563H138.351V26.2996C138.351 27.4127 138.798 27.9693 139.691 27.9693C139.859 27.9693 140.034 27.9499 140.215 27.9111C140.396 27.8593 140.552 27.8075 140.681 27.7557L141.069 29.4061C140.811 29.4967 140.513 29.5743 140.176 29.639C139.853 29.7167 139.503 29.7555 139.128 29.7555ZM142.784 29.5226V15.8151H145.017V19.3488L144.94 21.1932C145.341 20.8179 145.787 20.4878 146.279 20.203C146.771 19.9053 147.341 19.7565 147.988 19.7565C149.01 19.7565 149.755 20.0866 150.221 20.7467C150.687 21.4068 150.92 22.3388 150.92 23.5425V29.5226H148.687V23.8338C148.687 23.0442 148.57 22.4876 148.337 22.164C148.104 21.8404 147.722 21.6786 147.192 21.6786C146.778 21.6786 146.409 21.7822 146.085 21.9893C145.774 22.1834 145.418 22.4747 145.017 22.863V29.5226H142.784ZM157.692 29.5226V16.8247H159.944V21.931H165.089V16.8247H167.342V29.5226H165.089V23.892H159.944V29.5226H157.692ZM173.207 29.7555C172.184 29.7555 171.44 29.4255 170.974 28.7653C170.508 28.1052 170.275 27.1733 170.275 25.9695V19.9895H172.508V25.6783C172.508 26.4678 172.624 27.0244 172.857 27.348C173.09 27.6716 173.466 27.8334 173.983 27.8334C174.398 27.8334 174.76 27.7298 175.071 27.5227C175.394 27.3156 175.737 26.9791 176.1 26.5131V19.9895H178.332V29.5226H176.507L176.333 28.1246H176.274C175.86 28.6165 175.407 29.0113 174.915 29.309C174.423 29.6067 173.854 29.7555 173.207 29.7555ZM184.481 33.7357C183.73 33.7357 183.05 33.6451 182.442 33.4639C181.847 33.2827 181.374 33.0044 181.025 32.6291C180.688 32.2666 180.52 31.8071 180.52 31.2505C180.52 30.461 180.973 29.7814 181.879 29.2119V29.1342C181.633 28.9789 181.426 28.7718 181.258 28.5129C181.102 28.2541 181.025 27.9305 181.025 27.5422C181.025 27.1668 181.128 26.8303 181.335 26.5325C181.555 26.2219 181.801 25.9695 182.073 25.7753V25.6977C181.75 25.4517 181.458 25.1087 181.199 24.6686C180.953 24.2286 180.831 23.7302 180.831 23.1736C180.831 22.4358 181.005 21.8145 181.355 21.3097C181.704 20.8049 182.164 20.4231 182.733 20.1642C183.316 19.8924 183.937 19.7565 184.597 19.7565C184.856 19.7565 185.102 19.7824 185.335 19.8342C185.581 19.873 185.801 19.9248 185.995 19.9895H189.412V21.6398H187.665C187.82 21.821 187.95 22.054 188.053 22.3388C188.157 22.6106 188.208 22.9148 188.208 23.2513C188.208 23.9503 188.047 24.5457 187.723 25.0375C187.399 25.5165 186.966 25.8789 186.422 26.1248C185.879 26.3707 185.27 26.4937 184.597 26.4937C184.39 26.4937 184.176 26.4743 183.956 26.4355C183.736 26.3966 183.516 26.3319 183.296 26.2413C183.154 26.3707 183.037 26.5002 182.947 26.6296C182.869 26.7591 182.83 26.9338 182.83 27.1538C182.83 27.4257 182.94 27.6392 183.16 27.7946C183.393 27.9499 183.801 28.0275 184.384 28.0275H186.073C187.225 28.0275 188.092 28.2152 188.674 28.5906C189.27 28.953 189.568 29.5484 189.568 30.3768C189.568 30.9981 189.36 31.5612 188.946 32.066C188.532 32.5838 187.943 32.9915 187.179 33.2892C186.416 33.5869 185.516 33.7357 184.481 33.7357ZM184.597 25.0958C185.05 25.0958 185.438 24.9275 185.762 24.591C186.086 24.2544 186.247 23.782 186.247 23.1736C186.247 22.5782 186.086 22.1187 185.762 21.7951C185.451 21.4586 185.063 21.2903 184.597 21.2903C184.131 21.2903 183.736 21.4521 183.413 21.7757C183.089 22.0993 182.927 22.5653 182.927 23.1736C182.927 23.782 183.089 24.2544 183.413 24.591C183.736 24.9275 184.131 25.0958 184.597 25.0958ZM184.83 32.2796C185.594 32.2796 186.215 32.1242 186.694 31.8136C187.173 31.5029 187.412 31.147 187.412 30.7457C187.412 30.3704 187.264 30.118 186.966 29.9885C186.681 29.8591 186.267 29.7944 185.723 29.7944H184.422C183.905 29.7944 183.471 29.7491 183.122 29.6585C182.63 30.0338 182.384 30.4545 182.384 30.9205C182.384 31.3476 182.604 31.6777 183.044 31.9107C183.484 32.1566 184.079 32.2796 184.83 32.2796ZM194.568 33.7357C193.817 33.7357 193.137 33.6451 192.529 33.4639C191.934 33.2827 191.461 33.0044 191.112 32.6291C190.775 32.2666 190.607 31.8071 190.607 31.2505C190.607 30.461 191.06 29.7814 191.966 29.2119V29.1342C191.72 28.9789 191.513 28.7718 191.345 28.5129C191.189 28.2541 191.112 27.9305 191.112 27.5422C191.112 27.1668 191.215 26.8303 191.422 26.5325C191.642 26.2219 191.888 25.9695 192.16 25.7753V25.6977C191.837 25.4517 191.545 25.1087 191.286 24.6686C191.041 24.2286 190.918 23.7302 190.918 23.1736C190.918 22.4358 191.092 21.8145 191.442 21.3097C191.791 20.8049 192.251 20.4231 192.82 20.1642C193.403 19.8924 194.024 19.7565 194.684 19.7565C194.943 19.7565 195.189 19.7824 195.422 19.8342C195.668 19.873 195.888 19.9248 196.082 19.9895H199.499V21.6398H197.752C197.907 21.821 198.037 22.054 198.14 22.3388C198.244 22.6106 198.295 22.9148 198.295 23.2513C198.295 23.9503 198.134 24.5457 197.81 25.0375C197.486 25.5165 197.053 25.8789 196.509 26.1248C195.966 26.3707 195.357 26.4937 194.684 26.4937C194.477 26.4937 194.263 26.4743 194.043 26.4355C193.823 26.3966 193.603 26.3319 193.383 26.2413C193.241 26.3707 193.124 26.5002 193.034 26.6296C192.956 26.7591 192.917 26.9338 192.917 27.1538C192.917 27.4257 193.027 27.6392 193.247 27.7946C193.48 27.9499 193.888 28.0275 194.471 28.0275H196.16C197.312 28.0275 198.179 28.2152 198.761 28.5906C199.357 28.953 199.655 29.5484 199.655 30.3768C199.655 30.9981 199.447 31.5612 199.033 32.066C198.619 32.5838 198.03 32.9915 197.266 33.2892C196.503 33.5869 195.603 33.7357 194.568 33.7357ZM194.684 25.0958C195.137 25.0958 195.526 24.9275 195.849 24.591C196.173 24.2544 196.334 23.782 196.334 23.1736C196.334 22.5782 196.173 22.1187 195.849 21.7951C195.538 21.4586 195.15 21.2903 194.684 21.2903C194.218 21.2903 193.823 21.4521 193.5 21.7757C193.176 22.0993 193.014 22.5653 193.014 23.1736C193.014 23.782 193.176 24.2544 193.5 24.591C193.823 24.9275 194.218 25.0958 194.684 25.0958ZM194.917 32.2796C195.681 32.2796 196.302 32.1242 196.781 31.8136C197.26 31.5029 197.499 31.147 197.499 30.7457C197.499 30.3704 197.351 30.118 197.053 29.9885C196.768 29.8591 196.354 29.7944 195.81 29.7944H194.509C193.992 29.7944 193.558 29.7491 193.209 29.6585C192.717 30.0338 192.471 30.4545 192.471 30.9205C192.471 31.3476 192.691 31.6777 193.131 31.9107C193.571 32.1566 194.166 32.2796 194.917 32.2796ZM201.335 29.5226V19.9895H203.567V29.5226H201.335ZM202.461 18.3197C202.059 18.3197 201.736 18.2032 201.49 17.9703C201.244 17.7373 201.121 17.4266 201.121 17.0383C201.121 16.6629 201.244 16.3588 201.49 16.1258C201.736 15.8928 202.059 15.7763 202.461 15.7763C202.862 15.7763 203.186 15.8928 203.432 16.1258C203.677 16.3588 203.8 16.6629 203.8 17.0383C203.8 17.4266 203.677 17.7373 203.432 17.9703C203.186 18.2032 202.862 18.3197 202.461 18.3197ZM206.416 29.5226V19.9895H208.261L208.416 21.2709H208.494C208.921 20.8567 209.387 20.5008 209.891 20.203C210.396 19.9053 210.972 19.7565 211.619 19.7565C212.642 19.7565 213.386 20.0866 213.852 20.7467C214.318 21.4068 214.551 22.3388 214.551 23.5425V29.5226H212.318V23.8338C212.318 23.0442 212.202 22.4876 211.969 22.164C211.736 21.8404 211.354 21.6786 210.823 21.6786C210.409 21.6786 210.04 21.7822 209.717 21.9893C209.406 22.1834 209.05 22.4747 208.649 22.863V29.5226H206.416ZM220.601 33.7357C219.85 33.7357 219.17 33.6451 218.562 33.4639C217.967 33.2827 217.494 33.0044 217.145 32.6291C216.808 32.2666 216.64 31.8071 216.64 31.2505C216.64 30.461 217.093 29.7814 217.999 29.2119V29.1342C217.753 28.9789 217.546 28.7718 217.378 28.5129C217.222 28.2541 217.145 27.9305 217.145 27.5422C217.145 27.1668 217.248 26.8303 217.455 26.5325C217.675 26.2219 217.921 25.9695 218.193 25.7753V25.6977C217.869 25.4517 217.578 25.1087 217.319 24.6686C217.073 24.2286 216.95 23.7302 216.95 23.1736C216.95 22.4358 217.125 21.8145 217.475 21.3097C217.824 20.8049 218.284 20.4231 218.853 20.1642C219.436 19.8924 220.057 19.7565 220.717 19.7565C220.976 19.7565 221.222 19.7824 221.455 19.8342C221.701 19.873 221.921 19.9248 222.115 19.9895H225.532V21.6398H223.785C223.94 21.821 224.069 22.054 224.173 22.3388C224.277 22.6106 224.328 22.9148 224.328 23.2513C224.328 23.9503 224.167 24.5457 223.843 25.0375C223.519 25.5165 223.086 25.8789 222.542 26.1248C221.998 26.3707 221.39 26.4937 220.717 26.4937C220.51 26.4937 220.296 26.4743 220.076 26.4355C219.856 26.3966 219.636 26.3319 219.416 26.2413C219.274 26.3707 219.157 26.5002 219.067 26.6296C218.989 26.7591 218.95 26.9338 218.95 27.1538C218.95 27.4257 219.06 27.6392 219.28 27.7946C219.513 27.9499 219.921 28.0275 220.503 28.0275H222.193C223.345 28.0275 224.212 28.2152 224.794 28.5906C225.39 28.953 225.687 29.5484 225.687 30.3768C225.687 30.9981 225.48 31.5612 225.066 32.066C224.652 32.5838 224.063 32.9915 223.299 33.2892C222.536 33.5869 221.636 33.7357 220.601 33.7357ZM220.717 25.0958C221.17 25.0958 221.558 24.9275 221.882 24.591C222.206 24.2544 222.367 23.782 222.367 23.1736C222.367 22.5782 222.206 22.1187 221.882 21.7951C221.571 21.4586 221.183 21.2903 220.717 21.2903C220.251 21.2903 219.856 21.4521 219.533 21.7757C219.209 22.0993 219.047 22.5653 219.047 23.1736C219.047 23.782 219.209 24.2544 219.533 24.591C219.856 24.9275 220.251 25.0958 220.717 25.0958ZM220.95 32.2796C221.714 32.2796 222.335 32.1242 222.814 31.8136C223.293 31.5029 223.532 31.147 223.532 30.7457C223.532 30.3704 223.383 30.118 223.086 29.9885C222.801 29.8591 222.387 29.7944 221.843 29.7944H220.542C220.025 29.7944 219.591 29.7491 219.241 29.6585C218.75 30.0338 218.504 30.4545 218.504 30.9205C218.504 31.3476 218.724 31.6777 219.164 31.9107C219.604 32.1566 220.199 32.2796 220.95 32.2796ZM231.449 29.5226V16.8247H239.118V18.7275H233.701V22.3194H238.322V24.2221H233.701V29.5226H231.449ZM242.761 29.7555C241.932 29.7555 241.253 29.4967 240.722 28.9789C240.204 28.4612 239.946 27.7881 239.946 26.9597C239.946 25.9371 240.392 25.1476 241.285 24.591C242.178 24.0215 243.602 23.6331 245.557 23.426C245.544 22.9212 245.408 22.4876 245.149 22.1252C244.903 21.7498 244.456 21.5621 243.809 21.5621C243.343 21.5621 242.884 21.6527 242.431 21.834C241.991 22.0152 241.557 22.2352 241.13 22.4941L240.314 20.9991C240.845 20.6626 241.441 20.3713 242.101 20.1254C242.774 19.8795 243.486 19.7565 244.236 19.7565C245.427 19.7565 246.314 20.1124 246.896 20.8243C247.492 21.5233 247.789 22.5394 247.789 23.8726V29.5226H245.945L245.79 28.4741H245.712C245.285 28.8365 244.825 29.1407 244.333 29.3866C243.855 29.6326 243.33 29.7555 242.761 29.7555ZM243.479 28.0081C243.867 28.0081 244.217 27.9175 244.528 27.7363C244.851 27.5422 245.194 27.2833 245.557 26.9597V24.824C244.262 24.9922 243.363 25.2446 242.858 25.5812C242.353 25.9048 242.101 26.306 242.101 26.7849C242.101 27.2121 242.23 27.5227 242.489 27.7169C242.748 27.9111 243.078 28.0081 243.479 28.0081ZM254.442 29.7555C253.574 29.7555 252.791 29.5614 252.092 29.1731C251.406 28.7718 250.856 28.2023 250.442 27.4645C250.041 26.7138 249.84 25.8142 249.84 24.7657C249.84 23.7043 250.06 22.8047 250.5 22.0669C250.94 21.3162 251.523 20.7467 252.248 20.3584C252.986 19.9571 253.775 19.7565 254.616 19.7565C255.225 19.7565 255.755 19.86 256.209 20.0671C256.662 20.2742 257.063 20.5266 257.412 20.8243L256.325 22.2805C256.079 22.0605 255.827 21.8922 255.568 21.7757C255.309 21.6463 255.031 21.5816 254.733 21.5816C253.969 21.5816 253.341 21.8728 252.85 22.4553C252.371 23.0377 252.131 23.8079 252.131 24.7657C252.131 25.7106 252.364 26.4743 252.83 27.0568C253.309 27.6392 253.924 27.9305 254.675 27.9305C255.05 27.9305 255.4 27.8528 255.723 27.6975C256.06 27.5292 256.364 27.3351 256.636 27.115L257.548 28.5906C257.108 28.9789 256.616 29.2701 256.073 29.4643C255.529 29.6585 254.985 29.7555 254.442 29.7555ZM263.033 29.7555C262.153 29.7555 261.357 29.5614 260.645 29.1731C259.933 28.7718 259.37 28.2023 258.956 27.4645C258.542 26.7138 258.335 25.8142 258.335 24.7657C258.335 23.7302 258.542 22.8371 258.956 22.0864C259.383 21.3356 259.933 20.7596 260.606 20.3584C261.279 19.9571 261.985 19.7565 262.722 19.7565C263.59 19.7565 264.315 19.9506 264.897 20.339C265.479 20.7143 265.92 21.245 266.217 21.931C266.515 22.6041 266.664 23.3872 266.664 24.2803C266.664 24.7463 266.631 25.1087 266.567 25.3676H260.509C260.613 26.209 260.917 26.8626 261.422 27.3286C261.926 27.7946 262.561 28.0275 263.324 28.0275C263.739 28.0275 264.12 27.9693 264.47 27.8528C264.832 27.7234 265.188 27.5486 265.538 27.3286L266.295 28.7265C265.842 29.0242 265.337 29.2701 264.781 29.4643C264.224 29.6585 263.641 29.7555 263.033 29.7555ZM260.49 23.8532H264.722C264.722 23.1154 264.56 22.5394 264.237 22.1252C263.913 21.6981 263.428 21.4845 262.781 21.4845C262.224 21.4845 261.726 21.6916 261.286 22.1058C260.859 22.507 260.593 23.0895 260.49 23.8532Z" fill="#2C3236"/>
<g filter="url(#filter0_d_202_165)">
<path d="M42.3367 28.911C42.487 29.346 42.451 29.8093 42.2505 30.2121C42.1062 30.5062 41.8997 30.7338 41.6471 30.9372C41.3424 31.1789 40.9635 31.3843 40.5064 31.5817C39.9611 31.8154 39.2956 32.0349 38.9909 32.1155C38.2111 32.3189 37.4613 32.4478 36.7015 32.4539C35.615 32.4639 34.6788 32.2061 34.0133 31.5475C33.6685 31.5898 33.3196 31.614 32.9688 31.614C32.636 31.614 32.3073 31.5938 31.9805 31.5535C31.313 32.2081 30.3808 32.4639 29.2982 32.4539C28.5385 32.4478 27.7887 32.3189 27.0069 32.1155C26.7042 32.0349 26.0386 31.8154 25.4934 31.5817C25.0363 31.3843 24.6574 31.1789 24.3547 30.9372C24.1001 30.7338 23.8936 30.5062 23.7493 30.2121C23.5508 29.8093 23.5127 29.346 23.6651 28.911C23.5248 28.5786 23.4887 28.198 23.5989 27.777C23.6491 27.5857 23.7312 27.4084 23.8355 27.2513C23.8134 27.1687 23.7954 27.0841 23.7834 26.9915C23.7072 26.4396 23.8976 25.9361 24.2565 25.5453C24.4329 25.35 24.6233 25.215 24.8218 25.1284C24.6755 24.504 24.5993 23.8615 24.5993 23.2049C24.5993 18.5603 28.346 14.7958 32.9688 14.7958C34.5565 14.7958 36.042 15.2389 37.309 16.0124C37.5375 16.1533 37.762 16.3044 37.9765 16.4655C38.0828 16.5461 38.189 16.6287 38.2912 16.7153C38.3955 16.7999 38.4977 16.8885 38.596 16.9791C38.8927 17.2511 39.1713 17.5431 39.4259 17.8553C39.5121 17.958 39.5943 18.0648 39.6745 18.1735C39.8369 18.3891 39.9872 18.6126 40.1255 18.8442C40.336 19.1907 40.5205 19.5532 40.6808 19.9299C40.7871 20.1816 40.8793 20.4395 40.9615 20.7033C41.0838 21.0981 41.178 21.5049 41.2421 21.9239C41.2622 22.0629 41.2802 22.2039 41.2943 22.3448C41.3223 22.6268 41.3384 22.9128 41.3384 23.2049C41.3384 23.8534 41.2622 24.4899 41.1199 25.1042C41.3404 25.1908 41.5489 25.3318 41.7433 25.5453C42.1021 25.9361 42.2926 26.4416 42.2164 26.9935C42.2044 27.0841 42.1863 27.1687 42.1643 27.2513C42.2685 27.4084 42.3507 27.5857 42.4008 27.777C42.5111 28.198 42.475 28.5786 42.3367 28.911Z" fill="white"/>
<path d="M32.906 30.2041C36.7533 30.2041 39.8722 27.0704 39.8722 23.2049C39.8722 19.3394 36.7533 16.2057 32.906 16.2057C29.0586 16.2057 25.9397 19.3394 25.9397 23.2049C25.9397 27.0704 29.0586 30.2041 32.906 30.2041Z" fill="#FFD21E"/>
<path d="M39.8724 23.2049C39.8724 19.3394 36.7534 16.2057 32.9061 16.2057C29.0587 16.2057 25.9398 19.3394 25.9398 23.2049C25.9398 27.0705 29.0587 30.2041 32.9061 30.2041C36.7534 30.2041 39.8724 27.0705 39.8724 23.2049ZM25.1379 23.2049C25.1379 18.8944 28.6159 15.4001 32.9061 15.4001C37.1963 15.4001 40.6742 18.8944 40.6742 23.2049C40.6742 27.5154 37.1963 31.0098 32.9061 31.0098C28.6159 31.0098 25.1379 27.5154 25.1379 23.2049Z" fill="#FF9D00"/>
<path d="M35.17 21.3C35.4255 21.3906 35.5272 21.9185 35.7853 21.7805C36.2742 21.5194 36.4598 20.9094 36.1999 20.4182C35.9399 19.927 35.3329 19.7406 34.844 20.0017C34.3551 20.2629 34.1695 20.8728 34.4294 21.364C34.5521 21.5959 34.9415 21.2189 35.17 21.3Z" fill="#32343D"/>
<path d="M30.4467 21.3C30.1912 21.3906 30.0895 21.9185 29.8314 21.7805C29.3425 21.5194 29.1569 20.9094 29.4168 20.4182C29.6768 19.927 30.2838 19.7406 30.7727 20.0017C31.2616 20.2629 31.4472 20.8728 31.1873 21.364C31.0646 21.5959 30.6752 21.2189 30.4467 21.3Z" fill="#32343D"/>
<path d="M32.8561 26.1333C34.8264 26.1333 35.4622 24.3683 35.4622 23.4619C35.4622 22.9909 35.147 23.1391 34.6422 23.3902C34.1758 23.6223 33.5474 23.9421 32.8561 23.9421C31.4168 23.9421 30.25 22.5556 30.25 23.4619C30.25 24.3683 30.8858 26.1333 32.8561 26.1333Z" fill="#32343D"/>
<mask id="mask0_202_165" style="mask-type:alpha" maskUnits="userSpaceOnUse" x="30" y="23" width="6" height="4">
<path d="M32.8561 26.1333C34.8264 26.1333 35.4622 24.3683 35.4622 23.4619C35.4622 22.9909 35.147 23.1391 34.6422 23.3902C34.1758 23.6223 33.5474 23.9421 32.8561 23.9421C31.4168 23.9421 30.25 22.5556 30.25 23.4619C30.25 24.3683 30.8858 26.1333 32.8561 26.1333Z" fill="white"/>
</mask>
<g mask="url(#mask0_202_165)">
<path d="M32.9063 28.1907C33.8668 28.1907 34.6454 27.4084 34.6454 26.4434C34.6454 25.6918 34.173 25.051 33.5103 24.8044C33.4859 24.7953 33.4612 24.7868 33.4363 24.7788C33.2692 24.7251 33.0911 25.3022 32.9063 25.3022C32.7336 25.3022 32.5668 24.7214 32.4093 24.7685C31.691 24.9834 31.1672 25.6519 31.1672 26.4434C31.1672 27.4084 31.9458 28.1907 32.9063 28.1907Z" fill="#FF323D"/>
</g>
<g style="mix-blend-mode:multiply">
<path d="M37.6168 22.2485C37.9767 22.2485 38.2684 21.9554 38.2684 21.5938C38.2684 21.2321 37.9767 20.939 37.6168 20.939C37.2569 20.939 36.9651 21.2321 36.9651 21.5938C36.9651 21.9554 37.2569 22.2485 37.6168 22.2485Z" fill="#FFD21E"/>
</g>
<g style="mix-blend-mode:multiply">
<path d="M28.2955 22.2485C28.6554 22.2485 28.9472 21.9554 28.9472 21.5938C28.9472 21.2321 28.6554 20.939 28.2955 20.939C27.9356 20.939 27.6438 21.2321 27.6438 21.5938C27.6438 21.9554 27.9356 22.2485 28.2955 22.2485Z" fill="#FFD21E"/>
</g>
<path d="M26.955 24.4637C26.6304 24.4637 26.3403 24.5977 26.1381 24.8406C26.013 24.991 25.8823 25.2336 25.8716 25.5967C25.7355 25.5574 25.6046 25.5355 25.4823 25.5355C25.1716 25.5355 24.8909 25.6551 24.6925 25.8724C24.4375 26.1514 24.3242 26.4942 24.3735 26.8372C24.397 27.0006 24.4513 27.147 24.5325 27.2825C24.3613 27.4217 24.2352 27.6155 24.1743 27.8485C24.1266 28.0312 24.0776 28.4117 24.333 28.8036C24.3168 28.8292 24.3016 28.8558 24.2873 28.883C24.1338 29.1759 24.1239 29.5068 24.2595 29.8149C24.4649 30.282 24.9755 30.65 25.9671 31.045C26.5839 31.2907 27.1482 31.4478 27.1532 31.4492C27.9687 31.6617 28.7062 31.7697 29.3447 31.7697C30.5183 31.7697 31.3584 31.4085 31.842 30.6963C32.6202 29.5495 32.5089 28.5005 31.502 27.4894C30.9447 26.9299 30.5742 26.1049 30.497 25.9238C30.3415 25.3876 29.9301 24.7916 29.2463 24.7916H29.2461C29.1886 24.7916 29.1304 24.7963 29.0731 24.8053C28.7736 24.8527 28.5118 25.0259 28.3248 25.2865C28.1229 25.0344 27.9268 24.8337 27.7494 24.7205C27.482 24.5502 27.2148 24.4637 26.955 24.4637ZM26.955 25.2694C27.0572 25.2694 27.1821 25.3131 27.3198 25.4009C27.7474 25.6734 28.5725 27.0985 28.8746 27.6527C28.9759 27.8385 29.1489 27.917 29.3046 27.917C29.6138 27.917 29.8551 27.6082 29.3329 27.2159C28.5477 26.6255 28.8231 25.6606 29.198 25.6011C29.2144 25.5985 29.2307 25.5973 29.2463 25.5973C29.5871 25.5973 29.7375 26.1875 29.7375 26.1875C29.7375 26.1875 30.1781 27.2993 30.9351 28.0592C31.692 28.8193 31.7311 29.4294 31.1794 30.2423C30.8031 30.7966 30.0829 30.964 29.3447 30.964C28.5792 30.964 27.7943 30.7839 27.3545 30.6693C27.3328 30.6637 24.658 29.9046 24.9968 29.2584C25.0537 29.1499 25.1475 29.1064 25.2656 29.1064C25.7427 29.1064 26.6106 29.8198 26.9836 29.8198C27.067 29.8198 27.1258 29.7841 27.1498 29.6971C27.3088 29.1241 24.7328 28.8832 24.9499 28.0532C24.9882 27.9063 25.092 27.8467 25.2379 27.8469C25.8684 27.8469 27.2829 28.9609 27.5794 28.9609C27.6021 28.9609 27.6183 28.9543 27.6271 28.9402C27.7757 28.6993 27.6943 28.5311 26.6472 27.8944C25.6002 27.2576 24.8653 26.8745 25.2833 26.4173C25.3314 26.3645 25.3995 26.3411 25.4823 26.3411C26.118 26.3413 27.6199 27.7146 27.6199 27.7146C27.6199 27.7146 28.0253 28.1382 28.2704 28.1382C28.3268 28.1382 28.3747 28.1158 28.4071 28.0606C28.581 27.7661 26.7928 26.4046 26.6919 25.8428C26.6236 25.4622 26.7399 25.2694 26.955 25.2694Z" fill="#FF9D00"/>
<path d="M31.1786 30.2423C31.7303 29.4294 31.6912 28.8193 30.9342 28.0592C30.1772 27.2993 29.7366 26.1875 29.7366 26.1875C29.7366 26.1875 29.572 25.5417 29.1971 25.6011C28.8223 25.6605 28.547 26.6255 29.3323 27.2159C30.1175 27.806 29.1759 28.207 28.8738 27.6527C28.5717 27.0985 27.7467 25.6734 27.3189 25.4009C26.8914 25.1284 26.5902 25.2811 26.6911 25.8428C26.7919 26.4046 28.5803 27.7661 28.4063 28.0608C28.2323 28.3553 27.6191 27.7146 27.6191 27.7146C27.6191 27.7146 25.7002 25.9601 25.2824 26.4173C24.8646 26.8745 25.5993 27.2576 26.6464 27.8944C27.6936 28.5311 27.7748 28.6993 27.6263 28.9402C27.4775 29.1811 25.1661 27.2231 24.949 28.0532C24.7321 28.8832 27.3079 29.1241 27.149 29.6971C26.99 30.2703 25.3345 28.6125 24.9959 29.2584C24.6571 29.9046 27.332 30.6637 27.3536 30.6693C28.2176 30.8945 30.412 31.3717 31.1786 30.2423Z" fill="#FFD21E"/>
<path d="M38.9581 24.4637C39.2827 24.4637 39.5728 24.5977 39.775 24.8406C39.9001 24.991 40.0308 25.2336 40.0415 25.5967C40.1776 25.5574 40.3085 25.5355 40.4308 25.5355C40.7415 25.5355 41.0221 25.6551 41.2206 25.8724C41.4756 26.1514 41.5889 26.4942 41.5396 26.8372C41.5161 27.0006 41.4618 27.147 41.3806 27.2825C41.5518 27.4217 41.6779 27.6155 41.7388 27.8485C41.7865 28.0312 41.8354 28.4117 41.5801 28.8036C41.5963 28.8292 41.6115 28.8558 41.6258 28.883C41.7793 29.1759 41.7891 29.5068 41.6536 29.8149C41.4481 30.282 40.9375 30.65 39.946 31.045C39.3292 31.2907 38.7649 31.4478 38.7599 31.4492C37.9444 31.6617 37.2068 31.7697 36.5683 31.7697C35.3948 31.7697 34.5546 31.4085 34.0711 30.6963C33.2929 29.5495 33.4042 28.5005 34.4111 27.4894C34.9684 26.9299 35.3389 26.1049 35.4161 25.9238C35.5716 25.3876 35.983 24.7916 36.6668 24.7916H36.667C36.7245 24.7916 36.7826 24.7963 36.84 24.8053C37.1395 24.8527 37.4013 25.0259 37.5883 25.2865C37.7902 25.0344 37.9863 24.8337 38.1637 24.7205C38.4311 24.5502 38.6983 24.4637 38.9581 24.4637ZM38.9581 25.2694C38.8559 25.2694 38.731 25.3131 38.5933 25.4009C38.1657 25.6734 37.3405 27.0985 37.0384 27.6527C36.9372 27.8385 36.7642 27.917 36.6084 27.917C36.2993 27.917 36.058 27.6082 36.5802 27.2159C37.3654 26.6255 37.09 25.6606 36.7151 25.6011C36.6987 25.5985 36.6824 25.5973 36.6668 25.5973C36.326 25.5973 36.1756 26.1875 36.1756 26.1875C36.1756 26.1875 35.735 27.2993 34.978 28.0592C34.2211 28.8193 34.182 29.4294 34.7337 30.2423C35.1099 30.7966 35.8302 30.964 36.5683 30.964C37.3339 30.964 38.1188 30.7839 38.5586 30.6693C38.5802 30.6637 41.2551 29.9046 40.9163 29.2584C40.8594 29.1499 40.7655 29.1064 40.6475 29.1064C40.1704 29.1064 39.3025 29.8198 38.9295 29.8198C38.8461 29.8198 38.7873 29.7841 38.7633 29.6971C38.6043 29.1241 41.1803 28.8832 40.9632 28.0532C40.9249 27.9063 40.8211 27.8467 40.6751 27.8469C40.0447 27.8469 38.6302 28.9609 38.3337 28.9609C38.311 28.9609 38.2948 28.9543 38.286 28.9402C38.1374 28.6993 38.2188 28.5311 39.2658 27.8944C40.3129 27.2576 41.0478 26.8745 40.6298 26.4173C40.5817 26.3645 40.5136 26.3411 40.4308 26.3411C39.7951 26.3413 38.2932 27.7146 38.2932 27.7146C38.2932 27.7146 37.8878 28.1382 37.6427 28.1382C37.5863 28.1382 37.5384 28.1158 37.5059 28.0606C37.3321 27.7661 39.1203 26.4046 39.2211 25.8428C39.2895 25.4622 39.1732 25.2694 38.9581 25.2694Z" fill="#FF9D00"/>
<path d="M34.7333 30.2423C34.1816 29.4294 34.2207 28.8193 34.9777 28.0592C35.7346 27.2993 36.1753 26.1875 36.1753 26.1875C36.1753 26.1875 36.3399 25.5417 36.7147 25.6011C37.0896 25.6605 37.3648 26.6255 36.5796 27.2159C35.7944 27.806 36.736 28.207 37.0381 27.6527C37.3402 27.0985 38.1651 25.6734 38.5929 25.4009C39.0205 25.1284 39.3216 25.2811 39.2208 25.8428C39.1199 26.4046 37.3316 27.7661 37.5056 28.0608C37.6796 28.3553 38.2928 27.7146 38.2928 27.7146C38.2928 27.7146 40.2117 25.9601 40.6295 26.4173C41.0472 26.8745 40.3125 27.2576 39.2655 27.8944C38.2182 28.5311 38.1371 28.6993 38.2856 28.9402C38.4343 29.1811 40.7457 27.2231 40.9629 28.0532C41.1798 28.8832 38.6039 29.1241 38.7629 29.6971C38.9219 30.2703 40.5774 28.6125 40.9159 29.2584C41.2547 29.9046 38.5799 30.6637 38.5582 30.6693C37.6942 30.8945 35.4999 31.3717 34.7333 30.2423Z" fill="#FFD21E"/>
</g>
<defs>
<filter id="filter0_d_202_165" x="19.4936" y="11.6877" width="27.0127" height="25.7394" filterUnits="userSpaceOnUse" color-interpolation-filters="sRGB">
<feFlood flood-opacity="0" result="BackgroundImageFix"/>
<feColorMatrix in="SourceAlpha" type="matrix" values="0 0 0 0 0 0 0 0 0 0 0 0 0 0 0 0 0 0 127 0" result="hardAlpha"/>
<feOffset dy="0.932432"/>
<feGaussianBlur stdDeviation="2.02027"/>
<feColorMatrix type="matrix" values="0 0 0 0 0 0 0 0 0 0 0 0 0 0 0 0 0 0 0.1 0"/>
<feBlend mode="normal" in2="BackgroundImageFix" result="effect1_dropShadow_202_165"/>
<feBlend mode="normal" in="SourceGraphic" in2="effect1_dropShadow_202_165" result="shape"/>
</filter>
<linearGradient id="paint0_linear_202_165" x1="-1.24209e-07" y1="24" x2="86.5828" y2="24" gradientUnits="userSpaceOnUse">
<stop stop-color="#F5F9FA"/>
<stop offset="1" stop-color="white"/>
</linearGradient>
</defs>
</svg>
